<svg version="1.1" xmlns="http://www.w3.org/2000/svg" xmlns:xlink="http://www.w3.org/1999/xlink" width="240px" height="240px" viewBox="0,0,256,256"><defs><linearGradient x1="-0.652" y1="6.1" x2="24.652" y2="17.9" gradientUnits="userSpaceOnUse" id="color-1"><stop offset="0" stop-color="#ffffff" stop-opacity="0.2"></stop><stop offset="1" stop-color="#ffffff" stop-opacity="0"></stop></linearGradient></defs><g fill="none" fill-rule="nonzero" stroke="none" stroke-width="1" stroke-linecap="butt" stroke-linejoin="miter" stroke-miterlimit="10" stroke-dasharray="" stroke-dashoffset="0" font-family="none" font-weight="none" font-size="none" text-anchor="none" style="mix-blend-mode: normal"><g transform="scale(10.66667,10.66667)"><path d="M1.5,5c0.27637,0 0.5,-0.22363 0.5,-0.5v-1.5c0,-0.55127 0.44873,-1 1,-1h1.5c0.27637,0 0.5,-0.22363 0.5,-0.5c0,-0.27637 -0.22363,-0.5 -0.5,-0.5h-1.5c-1.10303,0 -2,0.89697 -2,2v1.5c0,0.27637 0.22363,0.5 0.5,0.5z" fill="#FFFFFF"></path><path d="M21,1h-1.5c-0.27637,0 -0.5,0.22363 -0.5,0.5c0,0.27637 0.22363,0.5 0.5,0.5h1.5c0.55127,0 1,0.44873 1,1v1.5c0,0.27637 0.22363,0.5 0.5,0.5c0.27637,0 0.5,-0.22363 0.5,-0.5v-1.5c0,-1.10303 -0.89697,-2 -2,-2z" fill="#FFFFFF"></path><path d="M22.5,19c-0.27637,0 -0.5,0.22363 -0.5,0.5v1.5c0,0.55127 -0.44873,1 -1,1h-1.5c-0.27637,0 -0.5,0.22363 -0.5,0.5c0,0.27637 0.22363,0.5 0.5,0.5h1.5c1.10303,0 2,-0.89697 2,-2v-1.5c0,-0.27637 -0.22363,-0.5 -0.5,-0.5z" fill="#FFFFFF"></path><path d="M4.5,22h-1.5c-0.55127,0 -1,-0.44873 -1,-1v-1.5c0,-0.27637 -0.22363,-0.5 -0.5,-0.5c-0.27637,0 -0.5,0.22363 -0.5,0.5v1.5c0,1.10303 0.89697,2 2,2h1.5c0.27637,0 0.5,-0.22363 0.5,-0.5c0,-0.27637 -0.22363,-0.5 -0.5,-0.5z" fill="#FFFF"></path><circle cx="12" cy="8.5" r="3.5" fill="#303c42"></circle><circle cx="12" cy="8.5" r="2.5" fill="#eac696"></circle><path d="M17.37451,14.43115c-1.25879,-0.65283 -3.21338,-1.43115 -5.37451,-1.43115c-2.16113,0 -4.11572,0.77832 -5.37451,1.43115c-1.00293,0.52002 -1.62549,1.54443 -1.62549,2.67383v0.45752c0,0.79248 0.64111,1.4375 1.42871,1.4375h11.14258c0.7876,0 1.42871,-0.64502 1.42871,-1.4375v-0.45752c0,-1.12939 -0.62256,-2.15381 -1.62549,-2.67383z" fill="#303c42"></path><path d="M18,17.5625c0,0.24121 -0.19238,0.4375 -0.42871,0.4375h-11.14258c-0.23633,0 -0.42871,-0.19629 -0.42871,-0.4375v-0.45752c0,-0.75439 0.41602,-1.43896 1.08545,-1.78613c1.16064,-0.60156 2.95508,-1.31885 4.91455,-1.31885c1.95947,0 3.75391,0.71729 4.91455,1.31885c0.66943,0.34717 1.08545,1.03174 1.08545,1.78613z" fill="#eac696"></path><path d="M13.18665,6.31335c0.19342,0.35474 0.31335,0.755 0.31335,1.18665c0,1.37842 -1.12158,2.5 -2.5,2.5c-0.43164,0 -0.83191,-0.11993 -1.18665,-0.31335c0.42419,0.77802 1.23987,1.31335 2.18665,1.31335c1.37842,0 2.5,-1.12158 2.5,-2.5c0,-0.94678 -0.53534,-1.76245 -1.31335,-2.18665z" fill="#000000" opacity="0.1"></path><path d="M16.91455,15.31885c-1.16064,-0.60156 -2.95508,-1.31885 -4.91455,-1.31885c-0.16864,0 -0.33411,0.01196 -0.5,0.02203c1.76178,0.10724 3.35382,0.74701 4.41455,1.29681c0.66943,0.34717 1.08545,1.03174 1.08545,1.78613v0.45752c0,0.24121 -0.19238,0.4375 -0.42871,0.4375h1c0.23633,0 0.42871,-0.19629 0.42871,-0.4375v-0.45752c0,-0.75439 -0.41602,-1.43896 -1.08545,-1.78613z" fill="#000000" opacity="0.1"></path><path d="M1.5,5c0.27637,0 0.5,-0.22363 0.5,-0.5v-1.5c0,-0.55127 0.44873,-1 1,-1h1.5c0.27637,0 0.5,-0.22363 0.5,-0.5c0,-0.27637 -0.22363,-0.5 -0.5,-0.5h-1.5c-1.10303,0 -2,0.89697 -2,2v1.5c0,0.27637 0.22363,0.5 0.5,0.5zM21,1h-1.5c-0.27637,0 -0.5,0.22363 -0.5,0.5c0,0.27637 0.22363,0.5 0.5,0.5h1.5c0.55127,0 1,0.44873 1,1v1.5c0,0.27637 0.22363,0.5 0.5,0.5c0.27637,0 0.5,-0.22363 0.5,-0.5v-1.5c0,-1.10303 -0.89697,-2 -2,-2zM22.5,19c-0.27637,0 -0.5,0.22363 -0.5,0.5v1.5c0,0.55127 -0.44873,1 -1,1h-1.5c-0.27637,0 -0.5,0.22363 -0.5,0.5c0,0.27637 0.22363,0.5 0.5,0.5h1.5c1.10303,0 2,-0.89697 2,-2v-1.5c0,-0.27637 -0.22363,-0.5 -0.5,-0.5zM4.5,22h-1.5c-0.55127,0 -1,-0.44873 -1,-1v-1.5c0,-0.27637 -0.22363,-0.5 -0.5,-0.5c-0.27637,0 -0.5,0.22363 -0.5,0.5v1.5c0,1.10303 0.89697,2 2,2h1.5c0.27637,0 0.5,-0.22363 0.5,-0.5c0,-0.27637 -0.22363,-0.5 -0.5,-0.5zM12,12c1.92969,0 3.5,-1.57031 3.5,-3.5c0,-1.92969 -1.57031,-3.5 -3.5,-3.5c-1.92969,0 -3.5,1.57031 -3.5,3.5c0,1.92969 1.57031,3.5 3.5,3.5zM19,17.10498c0,-1.12939 -0.62256,-2.15381 -1.62549,-2.67383c-1.25879,-0.65283 -3.21338,-1.43115 -5.37451,-1.43115c-2.16113,0 -4.11572,0.77832 -5.37451,1.43115c-1.00293,0.52002 -1.62549,1.54443 -1.62549,2.67383v0.45752c0,0.79248 0.64111,1.4375 1.42871,1.4375h11.14258c0.7876,0 1.42871,-0.64502 1.42871,-1.4375z" fill="url(#color-1)"></path></g></g></svg>